# xmcd
#
# Track frame offsets: 
#        150
#        18725
#        35986
#        56438
#        71102
#        89294
#        107954
#        123258
#        137206
#        171056
#        190191
#        208118
#
# Disc length: 3010 seconds
#
# Revision: 0
# Processed by: cddbd v1.5.2PL0 Copyright (c) Steve Scherf et al.
# Submitted via: ExactAudioCopyFreeDBPlugin 1.0
#
DISCID=b50bc00c
DTITLE=Barry White - Icon:Barry White
DYEAR=2010
DGENRE=Soul
TTITLE0=Loves Theme
TTITLE1=Can't Get Enough of Your Love, Babe
TTITLE2=You're the First, the Last, My Everything
TTITLE3=Honey Please, Can't Ya See
TTITLE4=Never, Never Gonna Give Ya Up
TTITLE5=I'm Gonna Love You Just a Little More, Baby
TTITLE6=It's Ecstasy When You Lay Down Next to Me
TTITLE7=I'm Qualified to Satisfy You
TTITLE8=Sha La La Means I Love You
TTITLE9=Let the Music Play
TTITLE10=Sho' You Right
TTITLE11=Practice What You Preach
EXTD=
EXTT0=Loves Theme
EXTT1=
EXTT2=
EXTT3=
EXTT4=
EXTT5=
EXTT6=
EXTT7=
EXTT8=
EXTT9=
EXTT10=
EXTT11=
PLAYORDER=
